<svg width="20" height="20" viewBox="0 0 20 20" fill="none" xmlns="http://www.w3.org/2000/svg">
<g clip-path="url(#clip0_2_32)">
<path fill-rule="evenodd" clip-rule="evenodd" d="M8.89631 0.168884C7.13691 0.169441 5.41717 0.691674 3.95455 1.66955C2.49193 2.64743 1.35211 4.03704 0.679196 5.66268C0.00628638 7.28832 -0.169489 9.07698 0.174095 10.8025C0.517679 12.528 1.36519 14.113 2.60948 15.3568C3.85376 16.6007 5.43894 17.4477 7.16458 17.7908C8.89022 18.1338 10.6788 17.9575 12.3043 17.2841C13.9297 16.6106 15.3189 15.4704 16.2963 14.0074C17.2738 12.5445 17.7954 10.8246 17.7954 9.0652C17.7943 6.70561 16.8563 4.44302 15.1875 2.7748C13.5188 1.10657 11.2559 0.169257 8.89631 0.168884ZM8.89631 1.5762C10.3775 1.5762 11.8254 2.01542 13.057 2.83832C14.2885 3.66122 15.2484 4.83085 15.8153 6.19928C16.3821 7.56772 16.5304 9.07351 16.2414 10.5262C15.9525 11.979 15.2392 13.3134 14.1918 14.3607C13.1445 15.4081 11.8101 16.1213 10.3573 16.4103C8.90462 16.6993 7.39883 16.551 6.0304 15.9841C4.66196 15.4173 3.49234 14.4574 2.66943 13.2259C1.84653 11.9943 1.40731 10.5464 1.40731 9.0652C1.40824 7.07928 2.19756 5.17496 3.60182 3.7707C5.00608 2.36645 6.91039 1.57713 8.89631 1.5762Z" fill="#B0B0B0"/>
<path fill-rule="evenodd" clip-rule="evenodd" d="M19.7945 18.6342L15.3784 14.2181C15.3135 14.1508 15.2358 14.0972 15.15 14.0604C15.0641 14.0235 14.9718 14.0041 14.8783 14.0033C14.7849 14.0024 14.6923 14.0203 14.6058 14.0556C14.5193 14.091 14.4407 14.1433 14.3747 14.2093C14.3086 14.2754 14.2564 14.354 14.221 14.4404C14.1856 14.5269 14.1678 14.6196 14.1686 14.713C14.1694 14.8064 14.1888 14.8988 14.2257 14.9846C14.2626 15.0705 14.3162 15.1481 14.3834 15.213L18.7995 19.6271C18.8644 19.6943 18.9421 19.7479 19.0279 19.7847C19.1138 19.8216 19.2061 19.841 19.2996 19.8418C19.393 19.8427 19.4856 19.8249 19.5721 19.7895C19.6586 19.7541 19.7372 19.7018 19.8032 19.6358C19.8693 19.5697 19.9215 19.4911 19.9569 19.4047C19.9923 19.3182 20.0101 19.2255 20.0093 19.1321C20.0085 19.0387 19.9891 18.9463 19.9522 18.8605C19.9153 18.7746 19.8617 18.697 19.7945 18.6321V18.6342Z" fill="#B0B0B0"/>
</g>
<defs>
<clipPath id="clip0_2_32">
<rect width="20" height="20" fill="white"/>
</clipPath>
</defs>
</svg>
